<svg width="99" height="138" viewBox="0 0 99 138" fill="none" xmlns="http://www.w3.org/2000/svg">
<path d="M11.5594 11C26.46 19.7539 29.425 25.1731 33 35L17.8027 32.6458C16.594 32.4585 15.486 31.8392 14.736 30.873C9.77847 24.4867 8.70145 19.9369 11.5594 11Z" fill="#BADB99"/>
<path d="M80.0424 15.5532C80.6446 14.3776 80.0776 12.934 78.8318 12.4951V12.4951C77.8001 12.1316 76.6551 12.5979 76.1678 13.5772C63.8209 38.3901 58.755 54.3993 51.901 82.576C51.6387 83.6543 52.2349 84.7637 53.2816 85.1325V85.1325C54.5122 85.5661 55.8441 84.8166 56.121 83.5416C61.9216 56.8273 66.9594 41.0958 80.0424 15.5532Z" fill="#B0CE91"/>
<path d="M33.7446 19.3709C33.5804 18.0368 32.2575 17.1605 30.9699 17.5462V17.5462C29.9563 17.8498 29.3119 18.8473 29.4555 19.8956C32.3847 41.2689 36.6626 53.7075 45.8033 74.3015C46.241 75.2876 47.3458 75.7966 48.3793 75.487V75.487C49.6482 75.1069 50.2715 73.6765 49.6975 72.4827C40.58 53.521 36.444 41.2988 33.7446 19.3709Z" fill="#B0CE91"/>
<path d="M36.6204 4.2644C31.5045 10.9455 31.146 14.0203 31.3043 19.2904L36.8002 16.1166C37.8873 15.4888 38.7297 14.4815 39.008 13.2574C39.7611 9.94523 39.2546 7.69457 36.6204 4.2644Z" fill="#BADB99"/>
<path d="M89.3907 8.00189C81.2583 10.1637 79.0954 12.3784 76 16.6466L82.2898 17.4931C83.534 17.6606 84.8163 17.3781 85.7847 16.5793C88.4049 14.4178 89.3795 12.3268 89.3907 8.00189Z" fill="#BADB99"/>
<path d="M73.004 0.264403C78.1199 6.94555 78.4784 10.0203 78.32 15.2904L72.8242 12.1166C71.7371 11.4888 70.8947 10.4815 70.6164 9.2574C69.8633 5.94523 70.3698 3.69457 73.004 0.264403Z" fill="#BADB99"/>
<path d="M62.1804 1.51587C72.3745 13.9887 73.2055 19.6396 73.1353 29.2904L60.6908 22.2867C59.6329 21.6913 58.8159 20.7322 58.4528 19.5739C56.2357 12.5014 56.7982 8.23435 62.1804 1.51587Z" fill="#BADB99"/>
<path d="M96.9068 16.1892C81.1543 19.5588 76.9749 23.4518 71 31.0309L85.0925 33.3377C86.2904 33.5338 87.5276 33.2953 88.5348 32.6178C94.6847 28.4809 96.9115 24.7978 96.9068 16.1892Z" fill="#BADB99"/>
<path d="M93.2907 34.7688C77.1839 35.0237 72.3296 38.0335 65 44.312L78.3789 49.3044C79.5161 49.7288 80.7761 49.7344 81.8954 49.2648C88.7302 46.3973 91.6281 43.2152 93.2907 34.7688Z" fill="#BADB99"/>
<path d="M86.3629 43.2518C67.0264 50.4841 62.6823 55.9108 57 66.0244L76.3776 65.7694C77.53 65.7542 78.6487 65.3457 79.513 64.5832C86.6568 58.2807 88.671 53.5198 86.3629 43.2518Z" fill="#B0CE91"/>
<path d="M57.96 23.3628C64.9357 32.643 65.4008 36.9321 65.1353 44.2904L56.9921 39.5531C55.8975 38.9163 55.0663 37.8904 54.7627 36.6609C53.5229 31.64 54.1183 28.4219 57.96 23.3628Z" fill="#B0CE91"/>
<path d="M46.4149 34.5347C57.1228 47.0861 58.072 52.7101 58.1588 62.2904L45.1216 55.0759C44.0855 54.5025 43.2752 53.5808 42.8923 52.4601C40.4689 45.3666 40.9658 41.1344 46.4149 34.5347Z" fill="#B0CE91"/>
<path d="M43.9791 12.4117C35.5288 21.5315 34.6706 25.5249 34.3729 32.2904L44.182 27.0343C45.1711 26.5043 45.9677 25.6621 46.3691 24.6142C48.2254 19.7688 47.8681 16.8286 43.9791 12.4117Z" fill="#BADB99"/>
<path d="M55.3055 20.6403C41.4357 32.9034 39.6512 37.9248 38.3729 46.2904L54.9292 38.0664C55.7753 37.6462 56.4917 36.9961 56.9629 36.1774C60.8179 29.48 60.8604 25.8132 55.3055 20.6403Z" fill="#BADB99"/>
<path d="M60.5221 37.317C44.8995 48.3333 42.3872 53.881 39.8919 63.5745L57.3959 58.182C58.4309 57.8631 59.3415 57.2203 59.9542 56.3273C64.7343 49.359 65.293 44.9757 60.5221 37.317Z" fill="#BADB99"/>
<path d="M16.4459 51.0295C33.5405 53.566 38.3192 57.4805 45.3143 65.2534L30.3413 68.7619C29.1504 69.0409 27.8911 68.8816 26.8338 68.2667C19.8454 64.2017 17.1428 60.3864 16.4459 51.0295Z" fill="#BADB99"/>
<path d="M7.42815 33.6097C24.5898 35.6433 29.4814 39.4158 36.7016 46.98L21.838 50.9265C20.6558 51.2404 19.3924 51.1181 18.3175 50.5344C11.2128 46.6764 8.39943 42.942 7.42815 33.6097Z" fill="#BADB99"/>
<path d="M1.40951 71.1219C0.688291 67.9894 3.06763 65 6.28203 65H89.0772C92.1738 65 94.5259 67.7861 94.0064 70.8388L83.2851 133.839C82.8761 136.242 80.7937 138 78.3559 138H20.7873C18.4581 138 16.4374 136.392 15.9148 134.122L1.40951 71.1219Z" fill="#CFB58E"/>
</svg>
