<svg width="1099" height="298" viewBox="0 0 1099 298" fill="none" xmlns="http://www.w3.org/2000/svg">
<g clip-path="url(#clip0)">
<rect width="1099" height="298" fill="white"/>
<path d="M888.653 211H881L888.653 298H911L888.653 211Z" fill="#BA9973"/>
<path d="M957 236.432L939.908 236.432L949.123 299.457L979.879 300.103L957 236.432Z" fill="#BA9973"/>
<path d="M186.859 153.514C188.446 152.524 190.279 152 192.149 152H928.461C930.557 152 932.599 152.658 934.301 153.882L1042.81 231.931C1050.69 237.601 1046.68 250.049 1036.97 250.049H66.9451C56.8921 250.049 53.1239 236.881 61.6551 231.563L186.859 153.514Z" fill="#BA9973"/>
<path d="M145.204 237.359L162.296 237.359L153.081 300.383L122.326 301.029L145.204 237.359Z" fill="#BA9973"/>
<path d="M212.347 217H220L212.347 304H190L212.347 217Z" fill="#BA9973"/>
<path d="M511 167H577.5L606.5 231H519.5L511 167Z" fill="#CFCFCF"/>
<path d="M525 162H591.5L620.5 226H533.5L525 162Z" fill="#E9E9E9"/>
<path d="M572.5 169H506L477 233H564L572.5 169Z" fill="#F6F5F5"/>
<rect x="608.736" y="169.531" width="6" height="49" rx="3" transform="rotate(-24.9522 608.736 169.531)" fill="#D7D7D7"/>
<path d="M633.261 214.046C633.151 214.808 632.257 215.164 631.653 214.687L628.933 212.542C628.328 212.065 628.467 211.113 629.182 210.828L632.399 209.545C633.114 209.26 633.87 209.856 633.759 210.618L633.261 214.046Z" fill="#D7D7D7"/>
<rect width="6.11524" height="71.0762" rx="3" transform="matrix(-0.205803 -0.978593 0.940155 -0.340748 448.259 229.982)" fill="#C6C6C6"/>
<path d="M516.609 201.464C517.438 201.551 517.588 202.709 516.847 203.297L512.321 206.886C511.729 207.356 510.977 207.096 510.885 206.389L510.35 202.264C510.258 201.558 510.885 200.858 511.548 200.928L516.609 201.464Z" fill="#C6C6C6"/>
<ellipse cx="857.742" cy="176.444" rx="61.7425" ry="14.5563" fill="#E5E5E5"/>
<path d="M815.545 88.8589C816.028 86.5929 818.051 85 820.368 85H894.389C896.656 85 898.646 86.523 899.186 88.7239C908.244 125.589 901.213 144.404 886.788 175.308C886.127 176.725 884.831 177.76 883.3 178.074C864.73 181.88 853.318 182.023 834.744 178.09C833.22 177.767 831.936 176.725 831.281 175.312C816.775 144.022 807.731 125.485 815.545 88.8589Z" fill="#C4C4C4"/>
<path d="M891.455 99.1832C938.643 68.578 925.167 116.725 891.455 156.289" stroke="#C4C4C4" stroke-width="10"/>
<rect x="218" y="107" width="107" height="25" rx="5" fill="#A8D8ED"/>
<rect x="226.719" y="112.714" width="98.2815" height="12.8571" rx="5" fill="#EBEBEB"/>
<rect x="226.719" y="112.714" width="98.2815" height="12.8571" fill="#EBEBEB"/>
<rect width="107" height="25" rx="5" transform="matrix(-1 0 0 1 312 82)" fill="#FFD098"/>
<rect width="98.2815" height="12.8571" rx="5" transform="matrix(-1 0 0 1 303.281 87.7144)" fill="#F5F5F5"/>
<rect width="98.2815" height="12.8571" transform="matrix(-1 0 0 1 303.281 87.7144)" fill="#F5F5F5"/>
<rect x="194" y="132" width="135" height="35" rx="5" fill="#F19797"/>
<rect x="205" y="140" width="124" height="18" rx="5" fill="#EBEBEB"/>
<rect x="205" y="140" width="124" height="18" fill="#EBEBEB"/>
<path d="M311.559 61C326.46 69.7539 329.425 75.1731 333 85L317.803 82.6458C316.594 82.4585 315.486 81.8392 314.736 80.873C309.778 74.4867 308.701 69.9369 311.559 61Z" fill="#BADB99"/>
<path d="M380.042 65.5532C380.645 64.3776 380.078 62.934 378.832 62.4951V62.4951C377.8 62.1316 376.655 62.5979 376.168 63.5772C363.821 88.3901 358.755 104.399 351.901 132.576C351.639 133.654 352.235 134.764 353.282 135.132V135.132C354.512 135.566 355.844 134.817 356.121 133.542C361.922 106.827 366.959 91.0958 380.042 65.5532Z" fill="#B0CE91"/>
<path d="M333.745 69.3709C333.58 68.0368 332.258 67.1605 330.97 67.5462V67.5462C329.956 67.8498 329.312 68.8473 329.456 69.8956C332.385 91.2689 336.663 103.708 345.803 124.301C346.241 125.288 347.346 125.797 348.379 125.487V125.487C349.648 125.107 350.271 123.676 349.697 122.483C340.58 103.521 336.444 91.2988 333.745 69.3709Z" fill="#B0CE91"/>
<path d="M336.62 54.2644C331.504 60.9455 331.146 64.0203 331.304 69.2904L336.8 66.1166C337.887 65.4888 338.73 64.4815 339.008 63.2574C339.761 59.9452 339.255 57.6946 336.62 54.2644Z" fill="#BADB99"/>
<path d="M389.391 58.0019C381.258 60.1637 379.095 62.3784 376 66.6466L382.29 67.4931C383.534 67.6606 384.816 67.3781 385.785 66.5793C388.405 64.4178 389.379 62.3268 389.391 58.0019Z" fill="#BADB99"/>
<path d="M373.004 50.2644C378.12 56.9455 378.478 60.0203 378.32 65.2904L372.824 62.1166C371.737 61.4888 370.895 60.4815 370.616 59.2574C369.863 55.9452 370.37 53.6946 373.004 50.2644Z" fill="#BADB99"/>
<path d="M362.18 51.5159C372.375 63.9887 373.206 69.6396 373.135 79.2904L360.691 72.2867C359.633 71.6913 358.816 70.7322 358.453 69.5739C356.236 62.5014 356.798 58.2344 362.18 51.5159Z" fill="#BADB99"/>
<path d="M396.907 66.1892C381.154 69.5588 376.975 73.4518 371 81.0309L385.092 83.3377C386.29 83.5338 387.528 83.2953 388.535 82.6178C394.685 78.4809 396.912 74.7978 396.907 66.1892Z" fill="#BADB99"/>
<path d="M393.291 84.7688C377.184 85.0237 372.33 88.0335 365 94.312L378.379 99.3044C379.516 99.7288 380.776 99.7344 381.895 99.2648C388.73 96.3973 391.628 93.2152 393.291 84.7688Z" fill="#BADB99"/>
<path d="M386.363 93.2518C367.026 100.484 362.682 105.911 357 116.024L376.378 115.769C377.53 115.754 378.649 115.346 379.513 114.583C386.657 108.281 388.671 103.52 386.363 93.2518Z" fill="#B0CE91"/>
<path d="M357.96 73.3628C364.936 82.643 365.401 86.9321 365.135 94.2904L356.992 89.5531C355.897 88.9163 355.066 87.8904 354.763 86.6609C353.523 81.64 354.118 78.4219 357.96 73.3628Z" fill="#B0CE91"/>
<path d="M346.415 84.5347C357.123 97.0861 358.072 102.71 358.159 112.29L345.122 105.076C344.085 104.502 343.275 103.581 342.892 102.46C340.469 95.3666 340.966 91.1344 346.415 84.5347Z" fill="#B0CE91"/>
<path d="M343.979 62.4117C335.529 71.5315 334.671 75.5249 334.373 82.2904L344.182 77.0343C345.171 76.5043 345.968 75.6621 346.369 74.6142C348.225 69.7688 347.868 66.8286 343.979 62.4117Z" fill="#BADB99"/>
<path d="M355.305 70.6403C341.436 82.9034 339.651 87.9248 338.373 96.2904L354.929 88.0664C355.775 87.6462 356.492 86.9961 356.963 86.1774C360.818 79.48 360.86 75.8132 355.305 70.6403Z" fill="#BADB99"/>
<path d="M360.522 87.317C344.9 98.3333 342.387 103.881 339.892 113.574L357.396 108.182C358.431 107.863 359.342 107.22 359.954 106.327C364.734 99.359 365.293 94.9757 360.522 87.317Z" fill="#BADB99"/>
<path d="M316.446 101.03C333.54 103.566 338.319 107.481 345.314 115.253L330.341 118.762C329.15 119.041 327.891 118.882 326.834 118.267C319.845 114.202 317.143 110.386 316.446 101.03Z" fill="#BADB99"/>
<path d="M307.428 83.6097C324.59 85.6433 329.481 89.4158 336.702 96.98L321.838 100.927C320.656 101.24 319.392 101.118 318.318 100.534C311.213 96.6764 308.399 92.942 307.428 83.6097Z" fill="#BADB99"/>
<path d="M301.41 121.122C300.688 117.989 303.068 115 306.282 115H389.077C392.174 115 394.526 117.786 394.006 120.839L383.285 183.839C382.876 186.242 380.794 188 378.356 188H320.787C318.458 188 316.437 186.392 315.915 184.122L301.41 121.122Z" fill="#D8BC93"/>
</g>
<defs>
<clipPath id="clip0">
<rect width="1099" height="298" fill="white"/>
</clipPath>
</defs>
</svg>
