<svg width="235" height="308" viewBox="0 0 235 308" fill="none" xmlns="http://www.w3.org/2000/svg">
<line x1="38" y1="-0.00794597" x2="38.6318" y2="238.518" stroke="#A8A7A7" stroke-width="6"/>
<line x1="127" y1="-0.0306373" x2="128.559" y2="152.673" stroke="#A8A7A7" stroke-width="6"/>
<line x1="201" y1="-0.0197845" x2="202.368" y2="207.447" stroke="#A8A7A7" stroke-width="6"/>
<path d="M78.2008 270.892C78.5733 290.136 57.2497 307.342 41.8344 307.343C23.3875 307.642 1.10128 290.14 0.728837 270.896C4.68249 252.13 19.966 232.913 38.4128 232.614C56.8597 232.315 77.8284 251.648 78.2008 270.892Z" fill="#FFECA9"/>
<path d="M20.701 210.989H59.133C57.0494 232.933 61.978 245.042 73.0646 266.565H10.6126C18.2938 244.796 23.5873 232.574 20.701 210.989Z" fill="#FFECA9"/>
<rect x="16.1463" y="210.989" width="46.6414" height="10.8264" rx="5.41322" fill="#C4C4C4"/>
<rect x="16.1463" y="205.215" width="46.6414" height="10.8264" rx="5.41322" fill="#C4C4C4"/>
<rect x="16.1463" y="200.163" width="46.6414" height="10.8264" rx="5.41322" fill="#C4C4C4"/>
<rect x="22.4706" y="194.389" width="33.9929" height="10.8264" rx="5.41322" fill="#C4C4C4"/>
<path d="M28.3995 221.816H50.5344C47.6774 241.083 49.2477 250.999 59.6255 266.565H19.3083C29.1544 251.651 31.7074 242.082 28.3995 221.816Z" fill="#FFE074"/>
<path d="M234.394 251.409C234.697 268.023 216.804 282.887 203.875 282.895C188.404 283.161 169.722 268.061 169.419 251.447C172.744 235.244 185.572 218.648 201.044 218.381C216.515 218.114 234.092 234.796 234.394 251.409Z" fill="#FFECA9"/>
<path d="M186.189 199.729H218.422C216.675 218.674 220.808 229.127 230.107 247.708H177.728C184.17 228.915 188.61 218.364 186.189 199.729Z" fill="#FFECA9"/>
<rect x="182.369" y="199.729" width="39.1186" height="9.34657" rx="4.67329" fill="#C4C4C4"/>
<rect x="182.369" y="194.744" width="39.1186" height="9.34657" rx="4.67329" fill="#C4C4C4"/>
<rect x="182.369" y="190.383" width="39.1186" height="9.34657" rx="4.67329" fill="#C4C4C4"/>
<rect x="187.673" y="185.398" width="28.5102" height="9.34657" rx="4.67329" fill="#C4C4C4"/>
<path d="M192.646 209.076H211.21C208.814 225.709 210.131 234.27 218.835 247.708H185.021C193.279 234.833 195.42 226.572 192.646 209.076Z" fill="#FFE074"/>
<path d="M169.583 211.504C169.97 233.296 147.075 252.794 130.532 252.804C110.736 253.154 86.8309 233.346 86.4437 211.554C90.6987 190.299 107.113 168.529 126.909 168.179C146.705 167.829 169.195 189.711 169.583 211.504Z" fill="#FFECA9"/>
<path d="M107.902 143.713H149.146C146.91 168.563 152.199 182.275 164.097 206.649H97.0751C105.318 181.997 110.999 168.157 107.902 143.713Z" fill="#FFECA9"/>
<rect x="103.014" y="143.713" width="50.0542" height="12.2603" rx="6.13015" fill="#A8A7A7"/>
<rect x="103.014" y="137.174" width="50.0542" height="12.2603" rx="6.13015" fill="#A8A7A7"/>
<rect x="103.014" y="131.453" width="50.0542" height="12.2603" rx="6.13015" fill="#A8A7A7"/>
<rect x="109.801" y="124.914" width="36.4801" height="12.2603" rx="6.13015" fill="#A8A7A7"/>
<path d="M116.163 155.973H139.918C136.852 177.792 138.537 189.022 149.674 206.649H106.407C116.974 189.76 119.713 178.923 116.163 155.973Z" fill="#FFE074"/>
</svg>
