<svg width="132" height="238" viewBox="0 0 132 238" fill="none" xmlns="http://www.w3.org/2000/svg">
<path d="M27.5594 11C42.46 19.7539 45.425 25.1731 49 35L33.8027 32.6458C32.594 32.4585 31.486 31.8392 30.736 30.873C25.7785 24.4867 24.7014 19.9369 27.5594 11Z" fill="#BADB99"/>
<path d="M96.0424 15.5532C96.6446 14.3776 96.0776 12.934 94.8318 12.4951V12.4951C93.8001 12.1316 92.6551 12.5979 92.1678 13.5772C79.8209 38.3901 74.755 54.3993 67.901 82.576C67.6387 83.6543 68.2349 84.7637 69.2816 85.1325V85.1325C70.5122 85.5661 71.8441 84.8166 72.121 83.5416C77.9216 56.8273 82.9594 41.0958 96.0424 15.5532Z" fill="#B0CE91"/>
<path d="M49.7446 19.3709C49.5804 18.0368 48.2575 17.1605 46.9699 17.5462V17.5462C45.9563 17.8498 45.3119 18.8473 45.4555 19.8956C48.3847 41.2689 52.6626 53.7075 61.8033 74.3015C62.241 75.2876 63.3458 75.7966 64.3793 75.487V75.487C65.6482 75.1069 66.2715 73.6765 65.6975 72.4827C56.58 53.521 52.444 41.2988 49.7446 19.3709Z" fill="#B0CE91"/>
<path d="M52.6204 4.2644C47.5045 10.9455 47.146 14.0203 47.3043 19.2904L52.8002 16.1166C53.8873 15.4888 54.7297 14.4815 55.008 13.2574C55.7611 9.94523 55.2546 7.69457 52.6204 4.2644Z" fill="#BADB99"/>
<path d="M105.391 8.00189C97.2583 10.1637 95.0954 12.3784 92 16.6466L98.2898 17.4931C99.534 17.6606 100.816 17.3781 101.785 16.5793C104.405 14.4178 105.379 12.3268 105.391 8.00189Z" fill="#BADB99"/>
<path d="M89.004 0.264403C94.1199 6.94555 94.4784 10.0203 94.32 15.2904L88.8242 12.1166C87.7371 11.4888 86.8947 10.4815 86.6164 9.2574C85.8633 5.94523 86.3698 3.69457 89.004 0.264403Z" fill="#BADB99"/>
<path d="M78.1804 1.51587C88.3745 13.9887 89.2055 19.6396 89.1353 29.2904L76.6908 22.2867C75.6329 21.6913 74.8159 20.7322 74.4528 19.5739C72.2357 12.5014 72.7982 8.23435 78.1804 1.51587Z" fill="#BADB99"/>
<path d="M112.907 16.1892C97.1543 19.5588 92.9749 23.4518 87 31.0309L101.092 33.3377C102.29 33.5338 103.528 33.2953 104.535 32.6178C110.685 28.4809 112.912 24.7978 112.907 16.1892Z" fill="#BADB99"/>
<path d="M109.291 34.7688C93.1839 35.0237 88.3296 38.0335 81 44.312L94.3789 49.3044C95.5161 49.7288 96.7761 49.7344 97.8954 49.2648C104.73 46.3973 107.628 43.2152 109.291 34.7688Z" fill="#BADB99"/>
<path d="M102.363 43.2518C83.0264 50.4841 78.6823 55.9108 73 66.0244L92.3776 65.7694C93.53 65.7542 94.6487 65.3457 95.513 64.5832C102.657 58.2807 104.671 53.5198 102.363 43.2518Z" fill="#B0CE91"/>
<path d="M73.96 23.3628C80.9357 32.643 81.4008 36.9321 81.1353 44.2904L72.9921 39.5531C71.8975 38.9163 71.0663 37.8904 70.7627 36.6609C69.5229 31.64 70.1183 28.4219 73.96 23.3628Z" fill="#B0CE91"/>
<path d="M62.4149 34.5347C73.1228 47.0861 74.072 52.7101 74.1588 62.2904L61.1216 55.0759C60.0855 54.5025 59.2752 53.5808 58.8923 52.4601C56.4689 45.3666 56.9658 41.1344 62.4149 34.5347Z" fill="#B0CE91"/>
<path d="M59.9791 12.4117C51.5288 21.5315 50.6706 25.5249 50.3729 32.2904L60.182 27.0343C61.1711 26.5043 61.9677 25.6621 62.3691 24.6142C64.2254 19.7688 63.8681 16.8286 59.9791 12.4117Z" fill="#BADB99"/>
<path d="M71.3055 20.6403C57.4357 32.9034 55.6512 37.9248 54.3729 46.2904L70.9292 38.0664C71.7753 37.6462 72.4917 36.9961 72.9629 36.1774C76.8179 29.48 76.8604 25.8132 71.3055 20.6403Z" fill="#BADB99"/>
<path d="M76.5221 37.317C60.8995 48.3333 58.3872 53.881 55.8919 63.5745L73.3959 58.182C74.4309 57.8631 75.3415 57.2203 75.9542 56.3273C80.7343 49.359 81.293 44.9757 76.5221 37.317Z" fill="#BADB99"/>
<path d="M32.4459 51.0295C49.5405 53.566 54.3192 57.4805 61.3143 65.2534L46.3413 68.7619C45.1504 69.0409 43.8911 68.8816 42.8338 68.2667C35.8454 64.2017 33.1428 60.3864 32.4459 51.0295Z" fill="#BADB99"/>
<path d="M23.4281 33.6097C40.5898 35.6433 45.4814 39.4158 52.7016 46.98L37.838 50.9265C36.6558 51.2404 35.3924 51.1181 34.3175 50.5344C27.2128 46.6764 24.3994 42.942 23.4281 33.6097Z" fill="#BADB99"/>
<path d="M17.4095 71.1219C16.6883 67.9894 19.0676 65 22.282 65H105.077C108.174 65 110.526 67.7861 110.006 70.8388L99.2851 133.839C98.8761 136.242 96.7937 138 94.3559 138H36.7873C34.4581 138 32.4374 136.392 31.9148 134.122L17.4095 71.1219Z" fill="#CFB58E"/>
<rect y="138" width="131" height="13" rx="5" fill="#AA8C68"/>
<rect x="3.34467" y="241.451" width="95.5202" height="6" rx="3" transform="rotate(-78.0528 3.34467 241.451)" fill="#AA8C68"/>
<rect x="23.7228" y="241.511" width="95.5202" height="6" rx="3" transform="rotate(-83.8504 23.7228 241.511)" fill="#AA8C68"/>
<rect width="95.5202" height="6" rx="3" transform="matrix(-0.20701 -0.978339 -0.978339 0.20701 131.644 241.451)" fill="#AA8C68"/>
<rect width="95.5202" height="6" rx="3" transform="matrix(-0.10799 -0.994152 -0.994152 0.10799 110.962 242.503)" fill="#AA8C68"/>
</svg>
