<svg width="804" height="1523" viewBox="0 0 804 1523" fill="none" xmlns="http://www.w3.org/2000/svg">
<rect x="14" width="790" height="1523" rx="35" fill="#D8BC93"/>
<g filter="url(#filter0_d)">
<path d="M473.654 321.125L446.652 529.447L139.035 489.575L167.391 281.429L473.654 321.125Z" fill="#CFCFCF"/>
<path d="M413.016 225.175L441.725 451.52L134 490.551L105.291 264.206L413.016 225.175Z" fill="#E9E9E9"/>
<path d="M490.564 439.1L490.564 229.035L169.765 229.035L168.399 439.1L490.564 439.1Z" fill="#F6F5F5"/>
<rect width="13.4505" height="123.587" rx="3" transform="matrix(0.481953 0.876197 -0.935153 0.354245 357.257 523.117)" fill="#5B5B5B"/>
<path d="M233.814 576.993C232.877 576.946 232.373 575.876 233.024 575.315L245.648 564.426C246.161 563.984 247.048 564.201 247.35 564.842L252.906 576.649C253.208 577.29 252.732 577.949 251.994 577.912L233.814 576.993Z" fill="#D7D7D7"/>
<rect width="15.761" height="157.288" rx="3" transform="matrix(0.986251 -0.165256 0.392903 0.91958 202.909 175.716)" fill="#C6C6C6"/>
<path d="M281.52 338.827C281.603 339.741 280.303 339.927 279.649 339.094L263.722 318.789C263.331 318.29 263.438 317.692 263.953 317.498L277.561 312.367C278.23 312.114 279.135 312.68 279.2 313.391L281.52 338.827Z" fill="#5B5B5B"/>
</g>
<g filter="url(#filter1_d)">
<rect x="281" y="612.668" width="193.403" height="334.46" rx="18" fill="#E5E5E5"/>
<rect x="347.653" y="637.696" width="110.36" height="283.267" rx="18" fill="#CFCFCF"/>
<rect x="295.205" y="735.531" width="43.707" height="88.7343" rx="10" fill="#CFCFCF"/>
<path d="M471.728 625.287C471.728 617.722 477.36 611.342 484.866 610.403L623.138 593.109C632.092 591.989 640 598.97 640 607.993V957.715C640 966.839 631.921 973.85 622.887 972.565L484.615 952.89C477.222 951.838 471.728 945.508 471.728 938.04V625.287Z" fill="#E9E9E9"/>
<path d="M483.145 640.47C483.145 632.945 488.72 626.585 496.18 625.599L611.506 610.359C620.492 609.172 628.471 616.165 628.471 625.23V941.081C628.471 950.253 620.311 957.278 611.241 955.914L495.915 938.577C488.574 937.473 483.145 931.167 483.145 923.744V640.47Z" fill="#A8D8ED"/>
</g>
<ellipse cx="668.155" cy="420.917" rx="69.4438" ry="67.3524" fill="#BA9973"/>
<ellipse cx="668.155" cy="420.918" rx="55.8274" ry="54.146" fill="#896E4F"/>
<path d="M619.897 357.527C640.187 369.087 644.224 376.244 649.092 389.222L627.692 386.007C626.5 385.828 625.405 385.225 624.643 384.292C617.535 375.581 615.926 369.57 619.897 357.527Z" fill="#BADB99"/>
<path d="M713.106 363.617C713.947 362.025 713.189 360.079 711.489 359.498V359.498C710.089 359.02 708.525 359.655 707.848 360.975C691.06 393.703 684.163 414.839 674.841 452.001C674.476 453.455 675.279 454.94 676.7 455.426V455.426C678.378 456 680.206 454.972 680.593 453.245C688.477 418.042 695.336 397.278 713.106 363.617Z" fill="#B0CE91"/>
<path d="M650.118 368.68C649.888 366.871 648.072 365.665 646.315 366.176V366.176C644.941 366.575 644.072 367.909 644.272 369.322C648.258 397.503 654.079 413.924 666.504 441.078C667.113 442.409 668.62 443.101 670.022 442.694V442.694C671.753 442.191 672.587 440.256 671.785 438.637C659.414 413.673 653.79 397.544 650.118 368.68Z" fill="#B0CE91"/>
<path d="M654.021 348.632C647.055 357.455 646.567 361.516 646.783 368.476L654.889 363.935C655.97 363.33 656.797 362.35 657.11 361.16C658.358 356.421 657.783 353.383 654.021 348.632Z" fill="#BADB99"/>
<path d="M725.876 353.568C714.802 356.423 711.857 359.347 707.642 364.984L716.924 366.196C718.158 366.357 719.428 366.071 720.425 365.316C724.4 362.304 725.86 359.559 725.876 353.568Z" fill="#BADB99"/>
<path d="M703.563 343.349C710.529 352.173 711.017 356.233 710.801 363.193L702.695 358.653C701.615 358.047 700.788 357.067 700.474 355.877C699.226 351.138 699.801 348.1 703.563 343.349Z" fill="#BADB99"/>
<path d="M688.825 345.002C702.706 361.474 703.837 368.937 703.742 381.682L686.19 372.102C685.14 371.528 684.331 370.598 683.954 369.471C680.7 359.756 681.335 354.07 688.825 345.002Z" fill="#BADB99"/>
<path d="M736.11 364.38C714.661 368.83 708.97 373.971 700.834 383.98L720.713 387.136C721.9 387.325 723.13 387.088 724.149 386.438C732.949 380.824 736.117 375.999 736.11 364.38Z" fill="#BADB99"/>
<path d="M731.186 388.917C709.254 389.254 702.645 393.228 692.664 401.52L711.521 408.345C712.658 408.756 713.92 408.756 715.054 408.308C724.804 404.454 728.873 400.315 731.186 388.917Z" fill="#BADB99"/>
<path d="M721.753 400.12C695.424 409.671 689.509 416.838 681.771 430.194L708.83 429.849C709.965 429.834 711.071 429.436 711.941 428.702C722.062 420.172 724.948 413.903 721.753 400.12Z" fill="#B0CE91"/>
<path d="M683.078 373.854C692.577 386.109 693.21 391.774 692.848 401.491L681.133 394.881C680.045 394.267 679.224 393.269 678.897 392.071C676.988 385.059 677.677 380.752 683.078 373.854Z" fill="#B0CE91"/>
<path d="M667.358 388.608C681.938 405.184 683.231 412.611 683.349 425.263L665.003 415.416C663.975 414.864 663.173 413.97 662.777 412.882C659.236 403.148 659.781 397.508 667.358 388.608Z" fill="#B0CE91"/>
<path d="M664.041 359.391C652.535 371.435 651.367 376.709 650.961 385.644L664.885 378.408C665.865 377.898 666.651 377.081 667.069 376.068C669.848 369.33 669.49 365.393 664.041 359.391Z" fill="#BADB99"/>
<path d="M679.464 370.258C660.578 386.453 658.148 393.085 656.408 404.133L679.436 393.038C680.272 392.636 680.98 392.008 681.456 391.22C686.966 382.092 687.153 377.203 679.464 370.258Z" fill="#BADB99"/>
<path d="M686.567 392.282C665.295 406.831 661.874 414.157 658.476 426.959L682.914 419.657C683.932 419.353 684.831 418.73 685.449 417.871C692.274 408.385 693.176 402.572 686.567 392.282Z" fill="#BADB99"/>
<path d="M626.551 410.391C649.828 413.741 656.335 418.911 665.859 429.176L644.791 433.964C643.607 434.233 642.351 434.072 641.28 433.481C631.33 427.988 627.519 422.998 626.551 410.391Z" fill="#BADB99"/>
<path d="M614.272 387.386C637.64 390.072 644.301 395.054 654.132 405.043L633.22 410.429C632.043 410.732 630.781 410.607 629.693 410.046C619.581 404.838 615.621 399.959 614.272 387.386Z" fill="#BADB99"/>
<path d="M679.748 496.738C670.507 481.135 670.565 475.586 672.332 466.708L685.553 478.619C686.319 479.309 686.848 480.213 687.025 481.212C688.376 488.869 687.071 492.635 679.748 496.738Z" fill="#BADB99"/>
<path d="M619.506 448.521C618.029 449.014 617.526 450.492 618.465 451.621V451.621C619.206 452.512 620.61 452.875 621.769 452.472C645.633 444.182 658.534 436.904 679.123 422.881C680.098 422.217 680.265 421.035 679.509 420.127V420.127C678.584 419.015 676.693 418.779 675.531 419.623C656.829 433.214 644.124 440.303 619.506 448.521Z" fill="#B0CE91"/>
<path d="M663.911 475.996C663.222 477.286 663.892 479.082 665.308 479.683V479.683C666.351 480.126 667.462 479.76 667.955 478.799C676.113 462.916 678.583 451.892 680.743 432.533C680.872 431.378 680.177 430.196 679.105 429.741V429.741C677.714 429.15 676.311 430.024 676.197 431.535C674.84 449.468 672.354 460.194 663.911 475.996Z" fill="#B0CE91"/>
<path d="M653.138 484.754C661.307 483.674 663.223 481.867 665.795 478.261L658.692 476.672C657.609 476.43 656.521 476.551 655.682 477.132C653.189 478.861 652.465 480.684 653.138 484.754Z" fill="#BADB99"/>
<path d="M606.348 447.61C614.97 451.515 618.109 451.464 623.169 450.66L617.453 445.665C616.606 444.925 615.495 444.402 614.283 444.294C610.634 443.969 608.627 444.694 606.348 447.61Z" fill="#BADB99"/>
<path d="M617.485 463.514C616.208 455.714 617.463 453.436 620.327 450.038L623.965 456.091C624.52 457.014 624.713 458.047 624.373 458.983C623.363 461.767 621.75 462.957 617.485 463.514Z" fill="#BADB99"/>
<path d="M628.123 469.792C625.145 454.808 627.292 450.507 632.334 444.14L640.416 457.301C640.957 458.183 641.152 459.165 640.918 460.086C639.322 466.355 636.627 468.855 628.123 469.792Z" fill="#BADB99"/>
<path d="M603.631 437.232C619.912 445.34 625.778 445.498 635.203 444.386L623.053 433.296C622.254 432.567 621.203 432.045 620.047 431.85C612.094 430.506 608.107 431.457 603.631 437.232Z" fill="#BADB99"/>
<path d="M616.552 427.261C631.554 437.671 637.587 438.86 647.592 439.502L637.634 427.172C636.917 426.283 635.88 425.558 634.68 425.157C626.808 422.527 622.477 422.715 616.552 427.261Z" fill="#BADB99"/>
<path d="M627.323 426.175C648.905 434.069 655.714 433.317 666.176 430.328L647.722 417.468C646.923 416.912 645.953 416.57 644.935 416.514C634.886 415.96 630.519 417.755 627.323 426.175Z" fill="#B0CE91"/>
<path d="M643.287 458.047C641.633 447.298 643.416 444.142 647.456 439.427L652.73 448.258C653.288 449.192 653.465 450.234 653.14 451.186C651.696 455.426 649.504 457.2 643.287 458.047Z" fill="#B0CE91"/>
<path d="M659.708 458.206C656.295 442.832 658.32 438.472 663.181 432.049L671.702 445.738C672.234 446.591 672.44 447.54 672.242 448.44C670.83 454.869 668.217 457.392 659.708 458.206Z" fill="#B0CE91"/>
<path d="M650.546 474.507C663.051 473.997 665.903 471.907 669.667 467.607L657.514 464.56C656.572 464.324 655.62 464.369 654.81 464.745C650.454 466.769 649.216 468.941 650.546 474.507Z" fill="#BADB99"/>
<path d="M644.334 461.599C663.463 462.56 667.7 460.396 673.195 455.676L653.316 450.169C652.544 449.955 651.759 449.933 651.043 450.125C643.845 452.054 641.847 454.438 644.334 461.599Z" fill="#BADB99"/>
<path d="M648.119 447.091C668.223 450.032 673.404 447.996 680.707 443.193L661.309 435.089C660.479 434.742 659.581 434.626 658.723 434.781C650.504 436.265 647.659 438.775 648.119 447.091Z" fill="#BADB99"/>
<path d="M695.882 466.929C681.409 454.016 679.016 448.276 676.567 438.516L692.563 446.194C693.579 446.682 694.48 447.483 695.088 448.495C699.53 455.882 700.095 460.206 695.882 466.929Z" fill="#BADB99"/>
<path d="M695.223 484.428C680.428 471.805 677.858 466.085 675.094 456.316L691.197 463.613C692.234 464.083 693.165 464.874 693.807 465.883C698.459 473.201 699.166 477.543 695.223 484.428Z" fill="#BADB99"/>
<rect x="543" y="75" width="170" height="230" rx="17" fill="#F19797"/>
<rect x="478.389" y="128.398" width="150.111" height="208.598" rx="17" transform="rotate(-27.2827 478.389 128.398)" fill="#A8D8ED"/>
<rect x="559.893" y="72.0735" width="150.219" height="209.342" rx="17" transform="rotate(7.85928 559.893 72.0735)" fill="#FFECA9"/>
<path d="M572.168 109.381C572.81 104.89 576.967 101.766 581.459 102.399L680.835 116.393C685.342 117.028 688.477 121.2 687.832 125.705V125.705C687.19 130.196 683.033 133.32 678.541 132.687L579.165 118.693C574.658 118.058 571.523 113.886 572.168 109.381V109.381Z" fill="#D7D7D7"/>
<path d="M568.168 135.381C568.81 130.89 572.967 127.766 577.459 128.399L676.835 142.393C681.342 143.028 684.477 147.2 683.832 151.705V151.705C683.19 156.196 679.033 159.32 674.541 158.687L575.165 144.693C570.658 144.058 567.523 139.886 568.168 135.381V135.381Z" fill="#D7D7D7"/>
<path d="M577.552 253.967C577.856 251.842 579.824 250.364 581.95 250.664L646.14 259.738C648.271 260.039 649.753 262.013 649.448 264.143V264.143C649.144 266.269 647.176 267.747 645.05 267.446L580.861 258.372C578.729 258.071 577.247 256.098 577.552 253.967V253.967Z" fill="#D7D7D7"/>
<path d="M575.372 1097.63C747.147 1111.41 628.324 1324.35 527.756 1180.53" stroke="#5B5B5B" stroke-width="10"/>
<path d="M515.185 1069.74C516.804 1062.7 522.075 1056.98 529.108 1055.34C560.711 1047.98 577.982 1053.73 598.855 1071.29C604.313 1075.89 606.48 1083.25 604.881 1090.2L601.306 1105.74C598.829 1116.51 588.096 1123.23 577.331 1120.75L526.655 1109.09C515.89 1106.62 509.171 1095.88 511.647 1085.12L515.185 1069.74Z" fill="#5B5B5B"/>
<path d="M539.134 1206.55C534.159 1211.79 526.711 1214.03 519.823 1211.86C488.871 1202.11 476.932 1188.37 467.903 1162.63C465.542 1155.9 467.424 1148.46 472.338 1143.29L483.325 1131.73C490.935 1123.72 503.595 1123.4 511.601 1131.01L549.291 1166.84C557.297 1174.45 557.618 1187.11 550.008 1195.11L539.134 1206.55Z" fill="#5B5B5B"/>
<ellipse cx="554.352" cy="1109.03" rx="31.5" ry="4" transform="rotate(13.9998 554.352 1109.03)" fill="#333333"/>
<ellipse cx="525.049" cy="1153.41" rx="31.5" ry="4" transform="rotate(41.5433 525.049 1153.41)" fill="#333333"/>
<g filter="url(#filter2_d)">
<path d="M124.08 1044.99C123.474 1043.13 124.777 1041.18 126.73 1041.05L298.768 1029.58C299.944 1029.51 301.075 1030.15 301.624 1031.2C336.857 1098.18 319.428 1128.29 301.8 1183.15C301.337 1184.59 299.875 1185.49 298.388 1185.21L137.024 1155.61C135.316 1155.29 134.235 1153.59 134.642 1151.9C144.376 1111.58 138.789 1090.16 124.08 1044.99Z" fill="#DEDCDC"/>
<path d="M129.115 1036.95C128.509 1035.09 129.812 1033.14 131.765 1033.01L303.803 1021.54C304.979 1021.47 306.11 1022.11 306.658 1023.16C341.892 1090.14 324.463 1120.25 306.834 1175.11C306.372 1176.55 304.909 1177.45 303.422 1177.17L142.059 1147.56C140.351 1147.25 139.269 1145.55 139.677 1143.86C149.41 1103.54 143.824 1082.11 129.115 1036.95Z" fill="#E9E9E9"/>
<path d="M138.073 1030.98C137.601 1029.07 139.042 1027.21 141.005 1027.22L314.872 1028.12C316.045 1028.13 317.122 1028.85 317.598 1029.92C348.447 1099.37 328.807 1128.18 307.283 1181.74C306.733 1183.11 305.266 1183.89 303.826 1183.57L138.819 1146.48C137.088 1146.09 136.076 1144.28 136.618 1142.59C149.372 1102.9 149.523 1077.29 138.073 1030.98Z" fill="white"/>
<rect x="134.611" y="1145.53" width="176" height="128" rx="5" transform="rotate(12.6696 134.611 1145.53)" fill="white"/>
<rect x="135.269" y="1142.6" width="176" height="3" transform="rotate(12.6696 135.269 1142.6)" fill="#C4C4C4"/>
<path d="M288.707 1188.41C289.832 1188.68 290.53 1189.8 290.266 1190.93L283.286 1220.74C283.021 1221.87 281.891 1222.56 280.763 1222.3V1222.3C279.638 1222.03 278.94 1220.91 279.204 1219.78L286.184 1189.97C286.448 1188.84 287.579 1188.14 288.707 1188.41V1188.41Z" fill="#D7D7D7"/>
<path d="M280.475 1186.54C281.601 1186.81 282.299 1187.94 282.034 1189.07L257.296 1294.08C257.03 1295.21 255.901 1295.91 254.773 1295.64V1295.64C253.647 1295.38 252.949 1294.25 253.215 1293.12L277.953 1188.1C278.218 1186.98 279.348 1186.28 280.475 1186.54V1186.54Z" fill="#D7D7D7"/>
<path d="M272.67 1184.79C273.796 1185.06 274.494 1186.18 274.228 1187.31L249.491 1292.33C249.225 1293.46 248.095 1294.16 246.968 1293.89V1293.89C245.842 1293.62 245.144 1292.5 245.41 1291.37L270.148 1186.35C270.413 1185.22 271.543 1184.52 272.67 1184.79V1184.79Z" fill="#D7D7D7"/>
<path d="M264.865 1183.04C265.991 1183.3 266.689 1184.43 266.423 1185.56L241.685 1290.58C241.42 1291.7 240.29 1292.4 239.163 1292.14V1292.14C238.037 1291.87 237.339 1290.74 237.604 1289.61L262.342 1184.6C262.608 1183.47 263.737 1182.77 264.865 1183.04V1183.04Z" fill="#D7D7D7"/>
<path d="M256.508 1181.17C257.634 1181.44 258.332 1182.57 258.067 1183.69L233.329 1288.71C233.063 1289.84 231.933 1290.54 230.806 1290.27V1290.27C229.68 1290.01 228.982 1288.88 229.248 1287.75L253.986 1182.73C254.251 1181.6 255.381 1180.91 256.508 1181.17V1181.17Z" fill="#D7D7D7"/>
<path d="M248.279 1179.31C249.405 1179.57 250.103 1180.7 249.837 1181.83L225.099 1286.85C224.834 1287.97 223.704 1288.67 222.577 1288.41V1288.41C221.451 1288.14 220.753 1287.01 221.018 1285.89L245.756 1180.87C246.022 1179.74 247.151 1179.04 248.279 1179.31V1179.31Z" fill="#D7D7D7"/>
<path d="M240.473 1177.55C241.6 1177.82 242.297 1178.95 242.032 1180.07L217.294 1285.09C217.029 1286.22 215.899 1286.92 214.772 1286.65V1286.65C213.646 1286.39 212.948 1285.26 213.213 1284.13L237.951 1179.11C238.217 1177.98 239.346 1177.29 240.473 1177.55V1177.55Z" fill="#D7D7D7"/>
<path d="M232.668 1175.8C233.794 1176.06 234.492 1177.19 234.227 1178.32L209.489 1283.34C209.223 1284.46 208.094 1285.16 206.967 1284.9V1284.9C205.84 1284.63 205.143 1283.5 205.408 1282.38L230.146 1177.36C230.411 1176.23 231.541 1175.53 232.668 1175.8V1175.8Z" fill="#D7D7D7"/>
<rect width="13.4505" height="123.587" rx="3" transform="matrix(-0.0230433 -0.999735 0.993078 0.117459 178.957 989.46)" fill="#DEDCDC"/>
<path d="M309.563 997.412C310.174 997.89 310.157 998.78 309.533 999.08L299.611 1003.84C298.897 1004.18 297.995 1003.49 298.095 1002.68L299.499 991.257C299.587 990.535 300.425 990.258 301.046 990.744L309.563 997.412Z" fill="#5B5B5B"/>
<path d="M148.347 1364C148.234 1365.46 147.13 1366.38 145.737 1366.18L142.431 1365.69C140.661 1365.42 139.183 1363.49 139.335 1361.64L151.747 1211C151.866 1209.55 152.967 1208.64 154.355 1208.85L156.935 1209.23C158.699 1209.49 160.175 1211.41 160.031 1213.26L148.347 1364Z" fill="#A8A7A7"/>
<path d="M156.294 1199.15C156.662 1198.3 157.916 1198.79 158.076 1199.84L159.836 1211.36C159.935 1212.01 159.511 1212.47 158.94 1212.34L152.771 1210.95C152.087 1210.8 151.614 1209.91 151.885 1209.29L156.294 1199.15Z" fill="#C6C6C6"/>
</g>
<circle cx="409.5" cy="1314.5" r="61.5" fill="#E5E5E5"/>
<ellipse cx="410" cy="1311" rx="50" ry="51" fill="#C4C4C4"/>
<rect x="418" y="1353.79" width="17" height="34" rx="8.5" transform="rotate(-16.3553 418 1353.79)" fill="#C4C4C4"/>
<circle cx="410" cy="1311" r="40" fill="#AA8C68"/>
<path d="M398.5 1280.5C420 1269.5 449.5 1293 442.5 1310" stroke="#DEDCDC"/>
<path d="M394.471 1337.64C385.135 1334.29 375.293 1315.01 379.365 1311" stroke="#DEDCDC"/>
<defs>
<filter id="filter0_d" x="95.2914" y="167.562" width="405.273" height="424.351" filterUnits="userSpaceOnUse" color-interpolation-filters="sRGB">
<feFlood flood-opacity="0" result="BackgroundImageFix"/>
<feColorMatrix in="SourceAlpha" type="matrix" values="0 0 0 0 0 0 0 0 0 0 0 0 0 0 0 0 0 0 127 0"/>
<feOffset dy="4"/>
<feGaussianBlur stdDeviation="5"/>
<feColorMatrix type="matrix" values="0 0 0 0 0 0 0 0 0 0 0 0 0 0 0 0 0 0 0.25 0"/>
<feBlend mode="normal" in2="BackgroundImageFix" result="effect1_dropShadow"/>
<feBlend mode="normal" in="SourceGraphic" in2="effect1_dropShadow" result="shape"/>
</filter>
<filter id="filter1_d" x="270" y="581.991" width="389" height="409.727" filterUnits="userSpaceOnUse" color-interpolation-filters="sRGB">
<feFlood flood-opacity="0" result="BackgroundImageFix"/>
<feColorMatrix in="SourceAlpha" type="matrix" values="0 0 0 0 0 0 0 0 0 0 0 0 0 0 0 0 0 0 127 0"/>
<feOffset dx="4" dy="4"/>
<feGaussianBlur stdDeviation="7.5"/>
<feColorMatrix type="matrix" values="0 0 0 0 0 0 0 0 0 0 0 0 0 0 0 0 0 0 0.25 0"/>
<feBlend mode="normal" in2="BackgroundImageFix" result="effect1_dropShadow"/>
<feBlend mode="normal" in="SourceGraphic" in2="effect1_dropShadow" result="shape"/>
</filter>
<filter id="filter2_d" x="91.5372" y="965.345" width="272.822" height="419.861" filterUnits="userSpaceOnUse" color-interpolation-filters="sRGB">
<feFlood flood-opacity="0" result="BackgroundImageFix"/>
<feColorMatrix in="SourceAlpha" type="matrix" values="0 0 0 0 0 0 0 0 0 0 0 0 0 0 0 0 0 0 127 0"/>
<feOffset dy="4"/>
<feGaussianBlur stdDeviation="7.5"/>
<feColorMatrix type="matrix" values="0 0 0 0 0 0 0 0 0 0 0 0 0 0 0 0 0 0 0.25 0"/>
<feBlend mode="normal" in2="BackgroundImageFix" result="effect1_dropShadow"/>
<feBlend mode="normal" in="SourceGraphic" in2="effect1_dropShadow" result="shape"/>
</filter>
</defs>
</svg>
